<svg height="512" viewBox="0 0 128 128" width="512" xmlns="http://www.w3.org/2000/svg"><g id="Layer_2" data-name="Layer 2"><path d="m66.7221 66.67a.9622.9622 0 0 1 -.64-.24.9986.9986 0 0 1 -.12-1.41c.36-.41.77-.91 1.2707-1.5195a1.0313 1.0313 0 0 1 1.4113-.1406 1.0008 1.0008 0 0 1 .1408 1.41c-.4614.5606-.8914 1.07-1.2814 1.53 0 .01-.01.01-.01.0195a1.0176 1.0176 0 0 1 -.7714.3506zm3.803-4.65a1.0038 1.0038 0 0 1 -.6206-.22.9982.9982 0 0 1 -.1593-1.41c.17-.21.34-.43.51-.6494.25-.3007.4906-.61.73-.91a1.0213 1.0213 0 0 1 1.4016-.17 1.01 1.01 0 0 1 .17 1.4091c-.33.41-.6607.83-1.0008 1.25l-.25.32a.9862.9862 0 0 1 -.7809.3803zm3.7132-4.73a.9441.9441 0 0 1 -.61-.21.9927.9927 0 0 1 -.1809-1.4c.42-.55.7507-.9795.9911-1.3a1.0038 1.0038 0 1 1 1.602 1.21c-.33.43-.6715.87-1.0116 1.31a.9853.9853 0 0 1 -.7906.39z" fill="#603913"/><path d="m111.9913 110.42a1.0076 1.0076 0 0 1 -.9813-.77l-.4506-1.9492a.8737.8737 0 0 1 -.0293-.23.9927.9927 0 0 1 .78-.97 1.0183 1.0183 0 0 1 1.2013.75l.45 1.9395a1.0071 1.0071 0 0 1 -.7506 1.21 1.5271 1.5271 0 0 1 -.2195.0197zm-1.3713-5.84a1.0057 1.0057 0 0 1 -.9715-.77l-.45-1.95a.8221.8221 0 0 1 -.03-.2295.987.987 0 0 1 .77-.97 1.0121 1.0121 0 0 1 1.211.7392l.4506 1.95a1 1 0 0 1 -.7506 1.2.8664.8664 0 0 1 -.2295.0303zm-1.3615-5.84a1.0039 1.0039 0 0 1 -.9706-.77 5.0558 5.0558 0 0 0 -.6509-1.53.9941.9941 0 0 1 .3-1.38 1.035 1.035 0 0 1 1.3918.3 7.5162 7.5162 0 0 1 .9112 2.14 1.0124 1.0124 0 0 1 -.9813 1.24zm-3.8735-4.26a1.1709 1.1709 0 0 1 -.32-.05 5.0987 5.0987 0 0 0 -1.642-.2695 1 1 0 1 1 0-2 7.1539 7.1539 0 0 1 2.292.38.9931.9931 0 0 1 .6207 1.27 1.004 1.004 0 0 1 -.9507.6695z" fill="#603913"/><path d="m23.3353 79.05a1.0064 1.0064 0 0 1 -.7506-.33c-.4809-.55-.911-1.04-1.3215-1.53a.97.97 0 0 1 -.24-.73 1.0046 1.0046 0 0 1 1.7612-.57c.3812.45.8113.9405 1.3019 1.5a1.02 1.02 0 0 1 -.09 1.42.9981.9981 0 0 1 -.661.24zm-3.8637-4.59a1.0117 1.0117 0 0 1 -.7809-.37c-.42-.52-.8308-1.05-1.2511-1.59a.9928.9928 0 0 1 .1808-1.4 1.0115 1.0115 0 0 1 1.4007.1807c.4007.51.8112 1.0293 1.2217 1.55h.01a.998.998 0 0 1 .22.62 1.0089 1.0089 0 0 1 -1.0009 1.01zm-3.6427-4.77a1.03 1.03 0 0 1 -.8113-.4092c-.38-.54-.78-1.1006-1.1611-1.65a.9575.9575 0 0 1 -.17-.75.9687.9687 0 0 1 .42-.64 1.0192 1.0192 0 0 1 1.3918.25c.37.5293.76 1.0791 1.1406 1.6094a.9392.9392 0 0 1 .1906.58.9929.9929 0 0 1 -.41.82 1.0127 1.0127 0 0 1 -.5906.1898zm-3.373-4.96a1.0037 1.0037 0 0 1 -.8513-.46c-.37-.58-.73-1.1494-1.07-1.71a.993.993 0 0 1 .33-1.37 1.0143 1.0143 0 0 1 1.3713.33c.3694.6006.72 1.15 1.06 1.67a1.0274 1.0274 0 0 1 .1506.54.9811.9811 0 0 1 -.9911 1zm-3.0925-5.14a.99.99 0 0 1 -.8709-.52c-.37-.6591-.6812-1.2392-.9608-1.77a1.0287 1.0287 0 0 1 -.08-.77 1.0569 1.0569 0 0 1 .4906-.5908 1.0216 1.0216 0 0 1 1.3508.42c.29.5508.6109 1.1406.9412 1.73a.01.01 0 0 0 .01.01 1.0151 1.0151 0 0 1 -.3909 1.36 1.0518 1.0518 0 0 1 -.49.1308zm-2.7426-5.34a1.0126 1.0126 0 0 1 -.9012-.57c-.31-.66-.58-1.26-.84-1.85a.9967.9967 0 0 1 -.02-.7608.9981.9981 0 0 1 1.8512-.039c.24.539.51 1.13.821 1.789a.9765.9765 0 0 1 .09.4405.9947.9947 0 0 1 -.5708.89.9335.9335 0 0 1 -.4302.1003z" fill="#603913"/><path d="m35.4658 35.7a1.002 1.002 0 0 1 -.9412-.67c-.24-.6807-.4408-1.33-.6207-1.98a1.0085 1.0085 0 0 1 .7106-1.23 1.0158 1.0158 0 0 1 1.2208.711c.171.6191.37 1.2392.5805 1.8291a.9989.9989 0 0 1 -.61 1.28.9774.9774 0 0 1 -.34.0599zm-1.342-5.8408a.9957.9957 0 0 1 -.99-.89q-.1054-1.0048-.1505-2.07a1.013 1.013 0 0 1 .2707-.71.9979.9979 0 0 1 .7-.3194h.03a.995.995 0 0 1 1.0008.96c.03.66.07 1.31.14 1.92 0 .04.0107.0693.0107.1a.9912.9912 0 0 1 -.8913 1 .499.499 0 0 1 -.1204.0096zm.04-5.98c-.04 0-.08-.01-.12-.01a1.0037 1.0037 0 0 1 -.8806-.99v-.12a.0335.0335 0 0 1 .0107-.02c.08-.69.19-1.37.32-2.04a1.0161 1.0161 0 0 1 1.1817-.78 1.0011 1.0011 0 0 1 .78 1.18c-.13.63-.23 1.2705-.3 1.9a1.0116 1.0116 0 0 1 -.9917.8808zm1.3918-5.83a1.0009 1.0009 0 0 1 -1.0008-1 .958.958 0 0 1 .06-.33.01.01 0 0 1 .01-.01.1485.1485 0 0 1 .02-.0606c.22-.6.48-1.2295.77-1.8594a1.0011 1.0011 0 0 1 1.8219.83c-.27.5694-.51 1.17-.7409 1.7793v.0115a1.0119 1.0119 0 0 1 -.9401.64zm2.7123-5.34a1.0421 1.0421 0 0 1 -.55-.16 1.0081 1.0081 0 0 1 -.45-.83.9345.9345 0 0 1 .16-.5595c.37-.5606.78-1.13 1.211-1.69a1.02 1.02 0 0 1 1.4007-.17.9906.9906 0 0 1 .1808 1.4c-.3812.4893-.7614 1.0195-1.1211 1.56a.9966.9966 0 0 1 -.8313.4503zm3.8529-4.59a.9958.9958 0 0 1 -.73-.3105.9627.9627 0 0 1 -.2708-.6887.9763.9763 0 0 1 .3108-.7207c.49-.47 1.02-.93 1.5609-1.3691a1.02 1.02 0 0 1 1.4016.1494.9892.9892 0 0 1 -.1408 1.4c-.5.41-.98.83-1.4514 1.2695a.9578.9578 0 0 1 -.6802.2709z" fill="#603913"/><path d="m80.3487 103.14s-24.924-18.004-10.5713-34.878c9.7591-11.4735 12.6119-17.28 13.4383-19.8215a3.13 3.13 0 0 1 2.3595-2.0853 2.9723 2.9723 0 0 1 3.5891 2.5755c.3892 3.5063.0518 9.8445-4.5664 18.6009 0 0 24.6835-20.5816 30.0348-54.298a3.834 3.834 0 0 1 3.8588-3.2329 3.6224 3.6224 0 0 1 3.3591 2.3812c2.6612 7.3 7.8938 31.1071-20.1914 63.0318a17.0857 17.0857 0 0 0 -4.2786 11.7045z" fill="#f9ce9b"/><path d="m80.2415 68.56a1.0559 1.0559 0 0 0 1.5041 1.4253 56.1639 56.1639 0 0 0 13.4615-13.8018l.01-.0154a83.49 83.49 0 0 1 -10.6192 11.3635c4.6182-8.7564 4.9556-15.0946 4.5664-18.6009a2.9767 2.9767 0 0 0 -3.7565-2.5366 3.3019 3.3019 0 0 0 -2.2313 2.1645c-.12.3546-.2825.7746-.488 1.2512a3.9166 3.9166 0 0 1 3.9568.8243c2.6806 2.549-2.8564 12.3169-6.4038 17.9259z" fill="#dbb58d"/><path d="m118.4914 10.0007a3.8216 3.8216 0 0 0 -1.9672.502c2.6966 8.2792 6.4139 31.4238-20.5275 62.0482a17.0859 17.0859 0 0 0 -4.2786 11.7046l.5567 7.6657 5.1058-4.803a17.0859 17.0859 0 0 1 4.2786-11.7046c28.0852-31.9246 22.8526-55.7316 20.1914-63.0317a3.6226 3.6226 0 0 0 -3.3592-2.3812z" fill="#dbb58d"/><path d="m80.349 104.1406a1 1 0 0 1 -.5865-.1894c-.5639-.4082-13.8409-10.126-15.31-22.2783a17.8015 17.8015 0 0 1 4.5625-14.0586c9.7408-11.4522 12.4814-17.1221 13.2487-19.4825a4.1373 4.1373 0 0 1 3.11-2.7558 4.0445 4.0445 0 0 1 3.1834.6777 3.965 3.965 0 0 1 1.602 2.7663c.348 3.1377.1144 7.9658-2.4318 14.3428 7.07-7.26 21.9524-25.1123 25.9168-50.086a4.8572 4.8572 0 0 1 4.7759-4.0768c.0294 0 .06.001.09.001a4.6082 4.6082 0 0 1 4.281 3.039c2.4718 6.7774 8.3059 31.4278-20.38 64.0342a16.0377 16.0377 0 0 0 -4.03 11.0186 1.0021 1.0021 0 0 1 -.3147.7539l-17.0312 16.0224a1.0008 1.0008 0 0 1 -.6861.2715zm5.8575-56.85a2.1562 2.1562 0 0 0 -.43.044 2.132 2.132 0 0 0 -1.6088 1.415c-.9931 3.0547-4.1628 9.0312-13.6279 20.1592a15.8856 15.8856 0 0 0 -4.1012 12.5176c1.1827 9.8105 11.1736 18.2959 13.8439 20.4033l16.0919-15.1383a18.0367 18.0367 0 0 1 4.5332-11.9375c27.9575-31.78 22.3785-55.5127 20.0025-62.03a2.6221 2.6221 0 0 0 -2.4377-1.7226c-.0176-.0013-.0352-.0013-.0524-.0013a2.8485 2.8485 0 0 0 -2.7992 2.3906c-5.3484 33.6973-30.1313 54.7-30.3815 54.9082a1 1 0 0 1 -1.5267-1.2334c4.409-8.3593 4.8577-14.416 4.4569-18.0244a1.9326 1.9326 0 0 0 -.79-1.37 1.9815 1.9815 0 0 0 -1.173-.38z" fill="#603913"/><path d="m97.047 87.175-27.2386 2.6263a2.0027 2.0027 0 0 0 -1.8084 2.1447l.853 11.048 32.1275-1.1432-1.7505-12.9514a2.0063 2.0063 0 0 0 -2.183-1.7244z" fill="#f0f0ff"/><path d="m69.8084 89.8013 2.1815-.21.0291.2151a7.7337 7.7337 0 0 0 8.4163 6.6468l16.1483-1.557a7.7158 7.7158 0 0 0 3.3064-1.1136l1.09 8.0682-32.1272 1.1432-.8528-11.048a2.0028 2.0028 0 0 1 1.8084-2.1447z" fill="#dcdcf9"/><path d="m68.8518 103.9941a1 1 0 0 1 -.9969-.9228l-.8533-11.0479a3.0175 3.0175 0 0 1 2.7113-3.2168l27.2382-2.6266a2.9906 2.9906 0 0 1 3.2713 2.5859l1.75 12.9512a1 1 0 0 1 -.9569 1.1328l-32.1275 1.1433c-.0118.0009-.0235.0009-.0362.0009zm28.2908-15.8241-27.2381 2.627a1.008 1.008 0 0 0 -.9071 1.0722l.779 10.0918 30.0639-1.07-1.602-11.8574a.9915.9915 0 0 0 -1.0957-.8633z" fill="#603913"/><path d="m66.8092 100.7969 36.4137-3.6279a2.0071 2.0071 0 0 1 2.16 1.5566l5.6371 25.2744h-44.1752l-1.8363-21.0391a2.0027 2.0027 0 0 1 1.8007-2.164z" fill="#8dc1f3"/><path d="m66.8091 100.7969 20.1084-2.0034a9.0427 9.0427 0 0 1 1.011 10.2022c-2.86 5.7.39 11.9042 2.4984 15.0043h-23.5821l-1.8363-21.0392a2.0026 2.0026 0 0 1 1.8006-2.1639z" fill="#7eaada"/><ellipse cx="97.968" cy="109.996" fill="#dcdcf9" rx="4.016" ry="4.001"/><path d="m101.9337 109.4958a3.9837 3.9837 0 0 0 -3.4633-3.4506 2.9973 2.9973 0 1 0 3.4633 3.4506z" fill="#f0f0ff"/><path d="m111.02 125h-44.1748a1 1 0 0 1 -.9969-.9131l-1.8366-21.039a3.0137 3.0137 0 0 1 2.6977-3.2461l36.4139-3.628a3.0215 3.0215 0 0 1 3.2362 2.334l5.6367 25.2744a.9991.9991 0 0 1 -.9762 1.2178zm-43.257-2h42.0086l-5.3649-24.0566a1.0084 1.0084 0 0 0 -1.0849-.7793l-36.4131 3.6279a1.0064 1.0064 0 0 0 -.9031 1.082z" fill="#603913"/><path d="m97.9685 114.9971a5.001 5.001 0 1 1 5.017-5.001 5.0148 5.0148 0 0 1 -5.017 5.001zm0-8.002a3.001 3.001 0 1 0 3.0153 3.001 3.0119 3.0119 0 0 0 -3.0153-3.001z" fill="#603913"/><path d="m47.6513 103.14s24.924-18.004 10.5713-34.878c-9.7591-11.4735-12.6119-17.28-13.4383-19.8215a3.13 3.13 0 0 0 -2.36-2.0853 2.9723 2.9723 0 0 0 -3.5891 2.5755c-.3892 3.5063-.0518 9.8445 4.5664 18.6009 0 0-24.6835-20.5816-30.0348-54.298a3.834 3.834 0 0 0 -3.8588-3.2329 3.6224 3.6224 0 0 0 -3.3591 2.3812c-2.6612 7.3-7.8938 31.1071 20.1914 63.0318a17.0857 17.0857 0 0 1 4.2786 11.7045z" fill="#f9ce9b"/><path d="m47.7585 68.56a1.0559 1.0559 0 0 1 -1.5041 1.4253 56.1639 56.1639 0 0 1 -13.4615-13.8018l-.01-.0154a83.49 83.49 0 0 0 10.6192 11.3635c-4.6182-8.7564-4.9556-15.0946-4.5664-18.6009a2.9767 2.9767 0 0 1 3.7565-2.5366 3.3019 3.3019 0 0 1 2.2313 2.1645c.12.3546.2825.7746.488 1.2512a3.9166 3.9166 0 0 0 -3.9568.8243c-2.6806 2.549 2.8564 12.3169 6.4038 17.9259z" fill="#dbb58d"/><path d="m9.5086 10.0007a3.8216 3.8216 0 0 1 1.9672.502c-2.6966 8.2792-6.4139 31.4238 20.5275 62.0482a17.0859 17.0859 0 0 1 4.2786 11.7046l-.5567 7.6657-5.1058-4.803a17.0859 17.0859 0 0 0 -4.2786-11.7046c-28.0852-31.9246-22.8526-55.7316-20.1914-63.0317a3.6226 3.6226 0 0 1 3.3592-2.3812z" fill="#dbb58d"/><path d="m47.651 104.1406a1.0008 1.0008 0 0 1 -.6861-.2715l-17.0312-16.0224a1.0021 1.0021 0 0 1 -.3147-.7539 16.0377 16.0377 0 0 0 -4.03-11.0186c-28.6855-32.6064-22.8514-57.2568-20.3796-64.0342a4.6082 4.6082 0 0 1 4.2806-3.039c.03 0 .0606-.001.0909-.001a4.8561 4.8561 0 0 1 4.7746 4.0762c3.9645 24.9746 18.8476 42.8271 25.9172 50.0869-2.5462-6.377-2.78-11.2051-2.4318-14.3428a3.965 3.965 0 0 1 1.6019-2.7666 4.042 4.042 0 0 1 3.1834-.6777 4.1378 4.1378 0 0 1 3.11 2.7549c.7673 2.3613 3.5079 8.0312 13.2487 19.4834a17.8015 17.8015 0 0 1 4.5625 14.0586c-1.4691 12.1523-14.7461 21.87-15.31 22.2783a1 1 0 0 1 -.5864.1894zm-16.0254-17.4492 16.0919 15.1386c2.67-2.1074 12.6612-10.5928 13.8439-20.4033a15.8856 15.8856 0 0 0 -4.1014-12.5175c-9.4651-11.128-12.6348-17.1045-13.6279-20.16a2.1326 2.1326 0 0 0 -1.6088-1.414 2.01 2.01 0 0 0 -1.6029.3359 1.9326 1.9326 0 0 0 -.79 1.37c-.4008 3.6084.0479 9.6651 4.4569 18.0244a1 1 0 0 1 -1.5267 1.2334c-.25-.208-25.0331-21.2109-30.3815-54.9092a2.8145 2.8145 0 0 0 -2.852-2.3886 2.6221 2.6221 0 0 0 -2.4371 1.7225c-2.376 6.5176-7.955 30.25 20.0025 62.03a18.0367 18.0367 0 0 1 4.5331 11.9378z" fill="#603913"/><path d="m30.953 87.175 27.2386 2.6263a2.0027 2.0027 0 0 1 1.8084 2.1447l-.853 11.048-32.127-1.1432 1.75-12.9514a2.0063 2.0063 0 0 1 2.183-1.7244z" fill="#f0f0ff"/><path d="m58.1916 89.8013-2.1815-.21-.0291.2151a7.7337 7.7337 0 0 1 -8.4163 6.6468l-16.1483-1.557a7.7158 7.7158 0 0 1 -3.3064-1.1136l-1.09 8.0682 32.1275 1.1432.8525-11.048a2.0028 2.0028 0 0 0 -1.8084-2.1447z" fill="#dcdcf9"/><path d="m59.1482 103.9941c-.0127 0-.0244 0-.0362-.0009l-32.1271-1.1432a1 1 0 0 1 -.9569-1.1328l1.75-12.9512a2.9946 2.9946 0 0 1 3.2709-2.586l27.2382 2.6269a3.0175 3.0175 0 0 1 2.7113 3.2168l-.8533 11.0479a1 1 0 0 1 -.9969.9225zm-30.9882-3.1035 30.0639 1.07.779-10.0918a1.008 1.008 0 0 0 -.9071-1.0722l-27.2384-2.6266a.9932.9932 0 0 0 -1.0957.8633z" fill="#603913"/><path d="m61.1908 100.7969-36.4137-3.6279a2.0071 2.0071 0 0 0 -2.16 1.5566l-5.6371 25.2744h44.1752l1.8363-21.0391a2.0027 2.0027 0 0 0 -1.8007-2.164z" fill="#8dc1f3"/><path d="m61.1909 100.7969-20.1084-2.0034a9.0427 9.0427 0 0 0 -1.011 10.2022c2.86 5.7-.39 11.9042-2.4984 15.0043h23.5821l1.8363-21.0392a2.0026 2.0026 0 0 0 -1.8006-2.1639z" fill="#7eaada"/><ellipse cx="30.032" cy="109.996" fill="#dcdcf9" rx="4.016" ry="4.001"/><path d="m29.53 106.0452a3.9837 3.9837 0 0 0 -3.4633 3.4506 3.0064 3.0064 0 1 0 3.4633-3.4506z" fill="#f0f0ff"/><path d="m61.1548 125h-44.1748a.9991.9991 0 0 1 -.9765-1.2178l5.6367-25.2744a3.0226 3.0226 0 0 1 3.2352-2.334l36.4149 3.628a3.0137 3.0137 0 0 1 2.6977 3.2461l-1.8366 21.039a1 1 0 0 1 -.9966.9131zm-42.9264-2h42.0086l1.7574-20.126a1.0064 1.0064 0 0 0 -.9031-1.082l-36.414-3.6279a1.0043 1.0043 0 0 0 -1.084.7793z" fill="#603913"/><path d="m30.0315 114.9971a5.001 5.001 0 1 1 5.017-5.001 5.0147 5.0147 0 0 1 -5.017 5.001zm0-8.002a3.001 3.001 0 1 0 3.0152 3.001 3.0119 3.0119 0 0 0 -3.0152-3.001z" fill="#603913"/><path d="m67.8494 4h-7.6988v42h7.6988a21.0007 21.0007 0 1 0 0-42z" fill="#fed18c"/><path d="m67.8494 4h-4.8118a21.0007 21.0007 0 1 1 0 42h4.8118a21.0007 21.0007 0 1 0 0-42z" fill="#e4ad5d"/><g fill="#603913"><path d="m82.2852 10.7275h-20.21a1 1 0 1 1 0-2h20.21a1 1 0 1 1 0 2z"/><path d="m85.7628 15.5h-23.6873a1 1 0 1 1 0-2h23.6873a1 1 0 1 1 0 2z"/><path d="m87.8808 20.2725h-25.8053a1 1 0 1 1 0-2h25.8053a1 1 0 1 1 0 2z"/><path d="m88.6344 25.0459h-26.5589a1 1 0 1 1 0-2h26.5589a1 1 0 1 1 0 2z"/><path d="m88.3988 29.8184h-26.3233a1 1 0 1 1 0-2h26.3233a1 1 0 1 1 0 2z"/><path d="m86.94 34.5908h-24.8645a1 1 0 1 1 0-2h24.8645a1 1 0 1 1 0 2z"/><path d="m83.88 39.3633h-21.8045a1 1 0 1 1 0-2h21.8045a1 1 0 1 1 0 2z"/><path d="m67.849 47h-7.698a1 1 0 0 1 -1.001-1v-42a1 1 0 0 1 1.001-1h7.698a22.0007 22.0007 0 1 1 0 44zm-6.6971-2h6.6971a20.0007 20.0007 0 1 0 0-40h-6.6971z"/></g><ellipse cx="60.151" cy="25" fill="#e4ad5d" rx="21.172" ry="21"/><ellipse cx="60.151" cy="25" fill="#ffbd5a" rx="17.323" ry="17.182"/><path d="m62.2107 22.6136h-4.2762a1.6042 1.6042 0 0 1 -1.6113-1.2664 1.5351 1.5351 0 0 1 1.5177-1.7881h4.6191a1.5453 1.5453 0 0 1 1.3054.72 1.84 1.84 0 0 0 1.5681.8076h.0065a1.9048 1.9048 0 0 0 1.6487-2.9021 5.3927 5.3927 0 0 0 -4.5287-2.4437v-1.1454a1.9169 1.9169 0 0 0 -1.9247-1.9091h-.77a1.9169 1.9169 0 0 0 -1.9247 1.9091v1.1454a5.3791 5.3791 0 0 0 -3.811 1.5655 5.2919 5.2919 0 0 0 -1.5734 3.55 5.5461 5.5461 0 0 0 5.6338 5.5754h4.2762a1.6043 1.6043 0 0 1 1.6113 1.2665 1.5352 1.5352 0 0 1 -1.5175 1.7881h-4.6191a1.5454 1.5454 0 0 1 -1.3054-.72 1.84 1.84 0 0 0 -1.5681-.8075h-.0061a1.9047 1.9047 0 0 0 -1.6487 2.9021 5.3926 5.3926 0 0 0 4.5283 2.4433v1.1457a1.9169 1.9169 0 0 0 1.9247 1.9091h.77a1.9169 1.9169 0 0 0 1.9244-1.9091v-1.1455a5.38 5.38 0 0 0 3.811-1.5654 5.2921 5.2921 0 0 0 1.5734-3.55 5.5462 5.5462 0 0 0 -5.6337-5.5755z" fill="#f0f0ff"/><path d="m60.5351 37.3594h-.7692a2.9208 2.9208 0 0 1 -2.9259-2.9094v-.2227a6.3684 6.3684 0 0 1 -4.3651-2.82 2.7987 2.7987 0 0 1 -.1085-2.9023 2.9527 2.9527 0 0 1 2.595-1.5459 2.8228 2.8228 0 0 1 2.42 1.2724.5411.5411 0 0 0 .4593.2549h4.62a.5415.5415 0 0 0 .4144-.1933.51.51 0 0 0 .1153-.4268.6159.6159 0 0 0 -.6235-.4346h-4.2763a6.7993 6.7993 0 0 1 -4.883-2.0839 6.1311 6.1311 0 0 1 -1.7506-4.5332 6.3639 6.3639 0 0 1 5.383-5.9962v-.2227a2.9208 2.9208 0 0 1 2.9263-2.9092h.7692a2.9209 2.9209 0 0 1 2.9264 2.9092v.2227a6.3682 6.3682 0 0 1 4.366 2.82 2.7969 2.7969 0 0 1 .1071 2.9016 2.9524 2.9524 0 0 1 -2.595 1.5459 2.8225 2.8225 0 0 1 -2.42-1.2714.5414.5414 0 0 0 -.4594-.2549h-4.6206a.5428.5428 0 0 0 -.4154.1943.51.51 0 0 0 -.1153.4248.6182.6182 0 0 0 .6246.4346h4.2761a6.8011 6.8011 0 0 1 4.8831 2.084 6.1348 6.1348 0 0 1 1.75 4.5341 6.3639 6.3639 0 0 1 -5.3825 5.9961v.2225a2.9209 2.9209 0 0 1 -2.9255 2.9094zm-5.5672-8.4a.94.94 0 0 0 -.8416.499.8237.8237 0 0 0 .0254.8574 4.3839 4.3839 0 0 0 3.6883 1.9889 1 1 0 0 1 1.0009 1v1.1453a.918.918 0 0 0 .9246.9092h.7692a.918.918 0 0 0 .9253-.9092v-1.1453a1 1 0 0 1 1.0009-1 4.3852 4.3852 0 0 0 3.1062-1.2754 4.3088 4.3088 0 0 0 1.2774-2.8818 4.1549 4.1549 0 0 0 -1.1963-3.0664 4.7862 4.7862 0 0 0 -3.4382-1.4678h-4.2757a2.6152 2.6152 0 0 1 -2.598-2.1006 2.5334 2.5334 0 0 1 2.5037-2.9527h4.62a2.5328 2.5328 0 0 1 2.1513 1.1855.844.844 0 0 0 .7223.3408.94.94 0 0 0 .8405-.499.8213.8213 0 0 0 -.0244-.8564 4.3867 4.3867 0 0 0 -3.69-1.9893 1 1 0 0 1 -1.0009-1v-1.1459a.918.918 0 0 0 -.9246-.9092h-.7692a.918.918 0 0 0 -.9246.9092v1.1455a1 1 0 0 1 -1.0009 1 4.3852 4.3852 0 0 0 -3.1061 1.2754 4.3043 4.3043 0 0 0 -1.2775 2.8818 4.1559 4.1559 0 0 0 1.1954 3.0655 4.79 4.79 0 0 0 3.4384 1.4677h4.2762a2.6151 2.6151 0 0 1 2.5979 2.1 2.5353 2.5353 0 0 1 -2.5041 2.9551h-4.6197a2.5325 2.5325 0 0 1 -2.1512-1.1855.8554.8554 0 0 0 -.7209-.3422z" fill="#603913"/><g fill="#fed18c" opacity=".6"><path d="m67.83 5.4308-27.4089 27.1867a20.9173 20.9173 0 0 0 2.946 5.1775l29.6829-29.442a21.18 21.18 0 0 0 -5.22-2.9222z"/><path d="m79.6027 16.703a20.9623 20.9623 0 0 0 -3.0927-5.0324l-29.7981 29.5564a21.2017 21.2017 0 0 0 5.0737 3.0672z"/></g><path d="m60.151 47a22.0007 22.0007 0 1 1 22.1723-22 22.1122 22.1122 0 0 1 -22.1723 22zm0-42a20.0007 20.0007 0 1 0 20.1706 20 20.1088 20.1088 0 0 0 -20.1706-20z" fill="#603913"/></g></svg>