<svg xmlns="http://www.w3.org/2000/svg" version="1.1" xmlns:xlink="http://www.w3.org/1999/xlink" width="512" height="512" x="0" y="0" viewBox="0 0 64 64" style="enable-background:new 0 0 512 512" xml:space="preserve"><g><path d="M39.62 57.44C9.858 51.774 13.396 9.16 43.64 8.33c.814-.052 2.045.355 2.31-.73a.976.976 0 0 0-.56-1.14A27.747 27.747 0 0 0 33.93 4c-37.145 1.537-37.136 54.469 0 56a28.287 28.287 0 0 0 5.73-.59 1.002 1.002 0 0 0-.04-1.97z" fill="#ffffff" opacity="1" data-original="#000000"></path><path d="M58.01 23.78c-4.439-12.042-20.448-15.491-29.42-6.3a17.931 17.931 0 0 0 0 25.34 18.309 18.309 0 0 0 2.86 2.33 1 1 0 0 0 1.36-1.42 15.12 15.12 0 0 1 22.98-19.5c.455.519 1.06 1.229 1.8.76a1.01 1.01 0 0 0 .42-1.21z" fill="#ffffff" opacity="1" data-original="#000000"></path><path d="M44.98 23.29a10.9 10.9 0 0 0-10.89 10.88c.103 1.008-.17 2.95 1.23 3.03a1.006 1.006 0 0 0 .97-.84c1.983-10.386 16.966-8.748 16.71 1.81a1.01 1.01 0 0 0 1 1.05.982.982 0 0 0 .91-.59 10.713 10.713 0 0 0 .96-4.46 10.9 10.9 0 0 0-10.89-10.88z" fill="#ffffff" opacity="1" data-original="#000000"></path></g></svg>