<svg clip-rule="evenodd" fill-rule="evenodd" stroke-linejoin="round" stroke-miterlimit="2" viewBox="0 0 32 32" xmlns="http://www.w3.org/2000/svg"><path d="m11.81 17.321c-2.6.693-5.49.021-7.529-2.017-3.041-3.042-3.041-7.981 0-11.023 3.042-3.041 7.981-3.041 11.023 0 2.038 2.039 2.71 4.929 2.017 7.529l12.679 12.679v5.511h-4.511c-.265 0-.52-.105-.707-.293-.188-.187-.293-.442-.293-.707 0-.52 0-1.154 0-1.674 0-.265-.105-.519-.293-.707-.187-.188-.442-.293-.707-.293-.52 0-1.154 0-1.674 0-.265 0-.52-.105-.707-.293-.188-.187-.293-.442-.293-.707v-1.674c0-.265-.105-.52-.293-.707-.188-.188-.442-.293-.707-.293h-2.26c-.265 0-.52-.105-.707-.293-1.116-1.116-5.038-5.038-5.038-5.038zm-1.399-9.984c1.014 1.014 1.148 2.526.3 3.374s-2.36.714-3.374-.3-1.148-2.526-.3-3.374 2.36-.714 3.374.3z" fill="#fcc93b"/><g fill="#493323"><path d="m19.815 23.652v1.674c0 .531.211 1.039.586 1.414s.883.586 1.414.586h1.674v1.674c0 .53.211 1.039.586 1.414s.883.586 1.414.586h4.511c.552 0 1-.448 1-1v-5.511c0-.265-.105-.52-.293-.707l-12.287-12.288c.545-2.777-.258-5.769-2.409-7.92-3.432-3.432-9.005-3.432-12.437 0-3.432 3.432-3.432 9.005 0 12.437 2.151 2.151 5.142 2.954 7.92 2.409l4.647 4.646c.375.375.884.586 1.414.586zm2 1.674v-1.674c0-.53-.211-1.039-.586-1.414s-.884-.586-1.414-.586h-2.26l-5.038-5.038c-.252-.252-.62-.351-.965-.259-2.267.604-4.787.019-6.564-1.758-2.651-2.652-2.651-6.957 0-9.609 2.652-2.651 6.957-2.651 9.609 0 1.777 1.777 2.362 4.297 1.758 6.564-.092.345.007.713.259.965l12.386 12.386v4.097h-3.511v-1.674c0-.53-.211-1.039-.586-1.414s-.884-.586-1.414-.586z"/><path d="m11.118 6.63c-1.436-1.436-3.587-1.502-4.788-.3-1.202 1.201-1.136 3.352.3 4.788s3.587 1.502 4.788.3c1.202-1.201 1.136-3.352-.3-4.788zm-1.414 1.414c.593.594.796 1.463.3 1.96-.497.496-1.366.293-1.96-.3-.593-.594-.796-1.464-.3-1.96s1.366-.293 1.96.3z"/><path d="m14.738 14.032 14.533 14.534c.313.312.82.312 1.132 0 .312-.313.312-.819 0-1.132l-14.534-14.533c-.312-.312-.819-.312-1.131 0s-.312.819 0 1.131z"/></g></svg>