<svg clip-rule="evenodd" fill-rule="evenodd" stroke-linejoin="round" stroke-miterlimit="2" viewBox="0 0 32 32" xmlns="http://www.w3.org/2000/svg"><path d="m9.268 16.001c-.17-.295-.268-.637-.268-1.001 0-1.104.896-2 2-2s2 .896 2 2c0 .364-.098.706-.268 1.001h3.268v10h-3.267c.17.294.267.635.267.999 0 1.103-.896 2-2 2s-2-.897-2-2c0-.364.097-.705.267-.999h-3.267v-3.269c-.294.17-.636.268-1 .268-1.104 0-2-.896-2-2s.896-2 2-2c.364 0 .706.098 1 .268v-3.267z" fill="#f24545"/><path d="m16 16.001h10v3.267c.294-.17.636-.268 1-.268 1.104 0 2 .896 2 2s-.896 2-2 2c-.364 0-.706-.098-1-.268v3.269h-3.267c.17.294.267.635.267.999 0 1.103-.896 2-2 2s-2-.897-2-2c0-.364.097-.705.267-.999h-3.267v-3.269c-.294.17-.636.268-1 .268-1.104 0-2-.896-2-2s.896-2 2-2c.364 0 .706.098 1 .268z" fill="#54b435"/><path d="m19.268 6.001c-.17-.295-.268-.637-.268-1.001 0-1.104.896-2 2-2s2 .896 2 2c0 .364-.098.706-.268 1.001h3.268v3.267c.294-.17.636-.268 1-.268 1.104 0 2 .896 2 2s-.896 2-2 2c-.364 0-.706-.098-1-.268v3.269h-3.267c.17.294.267.635.267.999 0 1.103-.896 2-2 2s-2-.897-2-2c0-.364.097-.705.267-.999h-3.267v-10z" fill="#ffc93c"/><path d="m15 15v-8.999c0-.552.448-1 1-1l2-.001c0-1.656 1.344-3 3-3s3 1.344 3 3l2 .001c.552 0 1 .448 1 1v1.999c1.656 0 3 1.344 3 3s-1.344 3-3 3v4c1.656 0 3 1.344 3 3s-1.344 3-3 3v2.001c0 .552-.448 1-1 1h-2c-.001 1.655-1.345 2.999-3 2.999s-2.999-1.344-3-2.999h-4c-.001 1.655-1.345 2.999-3 2.999s-2.999-1.344-3-2.999h-2c-.552 0-1-.448-1-1v-2.001c-1.656 0-3-1.344-3-3s1.344-3 3-3v-1.999c0-.552.448-1 1-1l2-.001c0-1.656 1.344-3 3-3s3 1.344 3 3zm9 2.001c-.001 1.655-1.345 2.999-3 2.999s-2.999-1.344-3-2.999h-1v2.267c0 .357-.191.688-.501.866-.309.179-.691.178-1-.001-.147-.085-.317-.133-.499-.133-.552 0-1 .448-1 1s.448 1 1 1c.182 0 .352-.048.499-.133.309-.179.691-.18 1-.001.31.178.501.509.501.866v2.269h2.267c.358 0 .688.191.866.5.179.31.179.691 0 1-.085.147-.133.317-.133.499 0 .551.448 1 1 1s1-.449 1-1c0-.182-.048-.352-.133-.499-.179-.309-.179-.69 0-1 .178-.309.508-.5.866-.5h2.267v-2.269c0-.357.191-.688.501-.866.309-.179.691-.178 1 .001.147.085.317.133.499.133.552 0 1-.448 1-1s-.448-1-1-1c-.182 0-.352.048-.499.133-.309.179-.691.18-1 .001-.31-.178-.501-.509-.501-.866v-2.267zm-9 0v.999c-1.656 0-3 1.344-3 3s1.344 3 3 3v1.001h-2.267c-.358 0-.688.191-.866.5-.179.31-.179.691 0 1 .085.147.133.317.133.499 0 .551-.448 1-1 1s-1-.449-1-1c0-.182.048-.352.133-.499.179-.309.179-.69 0-1-.178-.309-.508-.5-.866-.5h-2.267v-2.269c0-.357-.191-.688-.501-.866-.309-.179-.691-.178-1 .001-.147.085-.317.133-.499.133-.552 0-1-.448-1-1s.448-1 1-1c.182 0 .352.048.499.133.309.179.691.18 1 .001.31-.178.501-.509.501-.866v-2.267h2.268c.358 0 .688-.191.867-.501.178-.31.178-.691-.001-1.001-.086-.147-.134-.317-.134-.499 0-.552.448-1 1-1s1 .448 1 1c0 .182-.048.352-.134.499-.179.31-.179.691-.001 1.001.179.31.509.501.867.501zm4.268-10c.358 0 .688-.191.867-.501.178-.31.178-.691-.001-1.001-.086-.147-.134-.317-.134-.499 0-.552.448-1 1-1s1 .448 1 1c0 .182-.048.352-.134.499-.179.31-.179.691-.001 1.001.179.31.509.501.867.501h2.268v2.267c0 .357.191.688.501.866.309.179.691.178 1-.001.147-.085.317-.133.499-.133.552 0 1 .448 1 1s-.448 1-1 1c-.182 0-.352-.048-.499-.133-.309-.179-.691-.18-1-.001-.31.178-.501.509-.501.866v2.269h-2.267c-.358 0-.688.191-.866.5-.179.31-.179.691 0 1 .085.147.133.317.133.499 0 .551-.448 1-1 1s-1-.449-1-1c0-.182.048-.352.133-.499.179-.309.179-.69 0-1-.178-.309-.508-.5-.866-.5h-2.267v-8z" fill="#493323"/></svg>