<svg clip-rule="evenodd" fill-rule="evenodd" height="512" image-rendering="optimizeQuality" shape-rendering="geometricPrecision" text-rendering="geometricPrecision" viewBox="0 0 1707 1707" width="512" xmlns="http://www.w3.org/2000/svg"><g id="Layer_x0020_1"><path d="m1203 1517c-97 0-176-79-176-176s79-176 176-176 175 79 175 176-78 176-175 176zm-277-1h-699c-49 0-89-40-89-89v-1231c0-49 40-89 89-89h211c13-61 68-107 133-107h251c65 0 120 46 133 107h210c50 0 90 40 90 89v780c23 7 19 33 19 52 35 8 69 22 99 41 46-45 40-35 120 45 22 21-4 41-19 56 20 31 34 64 42 99 64 0 52 4 52 117 0 30-32 26-52 26-8 35-22 69-42 100 46 45 35 39-44 119-22 22-42-4-57-18-30 19-64 33-99 41 0 64-3 53-116 53-31 0-27-32-27-53-35-8-69-22-99-41-45 45-40 35-120-45-19-20 0-38 14-52zm-491-1356h-208c-19 0-35 17-35 36v1231c0 20 16 36 35 36h679c-7-16-12-33-16-51-64 0-53-3-53-116 0-30 32-27 53-27 8-35 22-68 41-99-45-45-36-39 45-120 21-21 41 4 56 19 30-19 64-33 99-41 0-58 5-53 70-53v-779c0-19-16-36-36-36h-207v85c0 15-12 27-27 27h-469c-15 0-27-12-27-27zm53 58h417v-82c0-46-37-83-83-83h-251c-46 0-83 37-83 83zm8 369h-201c-15 0-27-12-27-27v-200c0-15 12-27 27-27h201c16 0 27 13 27 28 17-13 47-43 66-16 9 12 7 28-5 37l-61 46v132c0 15-12 27-27 27zm-174-53h147v-67c-78 58-60 56-131-27-22-26 19-61 41-35l33 39 57-43v-15h-147zm174 460h-201c-15 0-27-11-27-26v-201c0-15 12-27 27-27h201c16 0 27 13 27 29 17-14 47-44 66-17 9 12 7 29-5 38l-61 45v133c0 14-12 26-27 26zm-174-53h147v-67c-78 58-60 56-131-27-22-26 19-61 41-34l33 38 57-43v-14h-147zm174 461h-201c-15 0-27-12-27-27v-201c0-15 12-27 27-27h201c16 0 27 13 27 29 17-13 47-43 66-16 9 11 7 28-5 37l-61 45v133c0 15-12 27-27 27zm-174-54h147v-66c-78 58-60 55-131-27-22-27 19-61 41-35l33 38 57-43v-14h-147zm738-864h-456c-34 0-34-54 0-54h456c34 0 34 54 0 54zm-90-96h-276c-35 0-35-53 0-53h276c35 0 35 53 0 53zm-124 197h-242c-34 0-34-53 0-53h242c34 0 34 53 0 53zm-55 713h-187c-34 0-34-53 0-53h187c35 0 35 53 0 53zm12-95h-109c-35 0-35-54 0-54h109c34 0 34 54 0 54zm-60 197h-139c-34 0-34-53 0-53h139c34 0 34 53 0 53zm317-509h-456c-34 0-34-53 0-53h456c34 0 34 53 0 53zm-90-96h-276c-35 0-35-53 0-53h276c35 0 35 53 0 53zm-124 198h-242c-34 0-34-54 0-54h242c34 0 34 54 0 54zm338 660h37c0-19-2-44 22-48 102-15 123-75 152-46l16 16 25-26c-13-13-32-30-18-50 62-83 34-140 75-140h22v-36c-19 0-44 2-48-23-15-102-75-122-46-152l15-15-25-26c-14 13-30 33-50 18-83-61-140-33-140-75v-22h-37c0 19 3 45-22 48-102 16-123 76-152 46l-15-15-26 26c13 13 33 29 18 50-61 83-34 140-75 140h-22v36c19 0 44-2 48 23 16 101 76 122 46 152l-15 15 26 26c13-14 29-33 49-18 83 61 140 33 140 75zm19-435c-68 0-123 55-123 123 0 67 55 122 123 122 67 0 122-55 122-122 0-68-55-123-122-123z" fill="#333"/><path d="m1027 1341c0-97 79-176 176-176s175 79 175 176-78 176-175 176-176-79-176-176zm-40-158c-61 83-34 140-75 140h-22v36c19 0 44-2 48 23 16 101 76 122 46 152l-15 15 26 26c13-14 29-33 49-18 83 61 140 33 140 75v21h37c0-19-2-44 22-48 102-15 123-75 152-46l16 16 25-26c-13-13-32-30-18-50 62-83 34-140 75-140h22v-36c-19 0-44 2-48-23-15-102-75-122-46-152l15-15-25-26c-14 13-30 33-50 18-83-61-140-33-140-75v-22h-37c0 19 3 45-22 48-102 16-123 76-152 46l-15-15-26 26c13 13 33 29 18 50z" fill="#ac6664"/><path d="m1032 1069c30-19 64-33 99-41 0-58 5-53 70-53v-779c0-19-16-36-36-36h-207v85c0 15-12 27-27 27h-469c-15 0-27-12-27-27v-85h-208c-19 0-35 17-35 36v1231c0 20 16 36 35 36h679c-7-16-12-33-16-51-64 0-53-3-53-116 0-30 32-27 53-27 8-35 22-68 41-99-45-45-36-39 45-120 21-21 41 4 56 19zm28-178h-456c-34 0-34-53 0-53h456c34 0 34 53 0 53zm-90-96h-276c-35 0-35-53 0-53h276c35 0 35 53 0 53zm-474-208h-201c-15 0-27-12-27-27v-200c0-15 12-27 27-27h201c16 0 27 13 27 28 17-13 47-43 66-16 9 12 7 28-5 37l-61 46v132c0 15-12 27-27 27zm350 352c34 0 34 54 0 54h-242c-34 0-34-54 0-54zm-323 29c0 14-12 26-27 26h-201c-15 0-27-11-27-26v-201c0-15 12-27 27-27h201c16 0 27 13 27 29 17-14 47-44 66-17 9 12 7 29-5 38l-61 45zm171 181h109c34 0 34 54 0 54h-109c-35 0-35-54 0-54zm-90 96h187c35 0 35 53 0 53h-187c-34 0-34-53 0-53zm-81-3v133c0 15-12 27-27 27h-201c-15 0-27-12-27-27v-201c0-15 12-27 27-27h201c16 0 27 13 27 29 17-13 47-43 66-16 9 11 7 28-5 37zm537-758h-456c-34 0-34-54 0-54h456c34 0 34 54 0 54zm-90-96h-276c-35 0-35-53 0-53h276c35 0 35 53 0 53zm-124 197h-242c-34 0-34-53 0-53h242c34 0 34 53 0 53zm-242 762h139c34 0 34 53 0 53h-139c-34 0-34-53 0-53z" fill="#ffe4af"/><path d="m488 218h417v-82c0-46-37-83-83-83h-251c-46 0-83 37-83 83z" fill="#7dd63e"/><g fill="#1aa1ff"><path d="m469 467c-78 58-60 56-131-27-22-26 19-61 41-35l33 39 57-43v-15h-147v148h147z"/><path d="m469 874c-78 58-60 56-131-27-22-26 19-61 41-34l33 38 57-43v-14h-147v147h147z"/><path d="m469 1282c-78 58-60 55-131-27-22-27 19-61 41-35l33 38 57-43v-14h-147v147h147z"/></g></g></svg>