<svg clip-rule="evenodd" fill-rule="evenodd" stroke-linejoin="round" stroke-miterlimit="2" viewBox="0 0 32 32" xmlns="http://www.w3.org/2000/svg"><path d="m25.421 29.215c-1.046-1.047-1.046-2.747 0-3.794 1.047-1.046 2.747-1.046 3.794 0 1.047 1.047 1.047 2.747 0 3.794s-2.747 1.047-3.794 0z" fill="#febeac"/><path d="m15.978 25.057c.001-1.219.79-2.298 1.952-2.667 2.372-.696 4.172-2.718 4.61-5.197.111-.666.688-1.153 1.363-1.153.638-.018 1.444-.018 2.236-.018.874 0 1.699.408 2.229 1.105.53.696.703 1.6.47 2.443-1.279 4.493-4.82 8.056-9.316 9.304-.831.233-1.723.064-2.41-.458-.687-.521-1.091-1.334-1.091-2.196-.043-.392-.043-.787-.043-1.163z" fill="#f24545"/><path d="m25.421 2.807c-1.046 1.047-1.046 2.747 0 3.794 1.047 1.047 2.747 1.047 3.794 0s1.047-2.747 0-3.794-2.747-1.047-3.794 0z" fill="#febeac"/><path d="m15.978 6.965c.001 1.219.79 2.298 1.952 2.667 2.372.696 4.172 2.718 4.61 5.197.111.666.688 1.153 1.363 1.153.638.018 1.444.018 2.236.018.874 0 1.699-.408 2.229-1.105.53-.696.703-1.6.47-2.443-1.279-4.493-4.82-8.056-9.316-9.304-.831-.233-1.723-.064-2.41.458-.687.521-1.091 1.334-1.091 2.196-.043.392-.043.787-.043 1.163z" fill="#f24545"/><path d="m25.421 2.807c-1.046 1.047-1.046 2.747 0 3.794 1.047 1.047 2.747 1.047 3.794 0s1.047-2.747 0-3.794-2.747-1.047-3.794 0z" fill="#febeac"/><path d="m15.978 6.965c.001 1.219.79 2.298 1.952 2.667 2.372.696 4.172 2.718 4.61 5.197.111.666.688 1.153 1.363 1.153.638.018 1.444.018 2.236.018.874 0 1.699-.408 2.229-1.105.53-.696.703-1.6.47-2.443-1.279-4.493-4.82-8.056-9.316-9.304-.831-.233-1.723-.064-2.41.458-.687.521-1.091 1.334-1.091 2.196-.043.392-.043.787-.043 1.163z" fill="#5bc0f8"/><path d="m6.557 29.215c1.046-1.047 1.046-2.747 0-3.794-1.047-1.046-2.747-1.046-3.794 0-1.047 1.047-1.047 2.747 0 3.794s2.747 1.047 3.794 0z" fill="#febeac"/><path d="m16 25.057c-.001-1.219-.79-2.298-1.952-2.667-2.373-.696-4.172-2.718-4.61-5.197-.111-.666-.688-1.153-1.363-1.153-.638-.018-1.444-.018-2.236-.018-.874 0-1.699.408-2.229 1.105-.53.696-.703 1.6-.47 2.443 1.279 4.493 4.82 8.056 9.316 9.304.831.233 1.723.064 2.41-.458.687-.521 1.091-1.334 1.091-2.196.043-.392.043-.787.043-1.163z" fill="#ffc93c"/><path d="m6.557 2.807c1.046 1.047 1.046 2.747 0 3.794-1.047 1.047-2.747 1.047-3.794 0s-1.047-2.747 0-3.794 2.747-1.047 3.794 0z" fill="#febeac"/><path d="m16 6.965c-.001 1.219-.79 2.298-1.952 2.667-2.373.696-4.172 2.718-4.61 5.197-.111.666-.688 1.153-1.363 1.153-.638.018-1.444.018-2.236.018-.874 0-1.699-.408-2.229-1.105-.53-.696-.703-1.6-.47-2.443 1.279-4.493 4.82-8.056 9.316-9.304.831-.233 1.723-.064 2.41.458.687.521 1.091 1.334 1.091 2.196.043.392.043.787.043 1.163z" fill="#54b435"/><path d="m3.933 8.287c-.774 1.195-1.378 2.512-1.777 3.914 0 .002-.001.004-.002.007-.317 1.144-.081 2.37.638 3.315.138.181.291.348.456.499-.165.151-.318.318-.456.499-.719.945-.955 2.171-.638 3.316.001.002.002.004.002.006.395 1.386.989 2.69 1.751 3.875v.001c-.671.143-1.309.475-1.829.995-1.437 1.437-1.437 3.771 0 5.208s3.771 1.437 5.208 0c.519-.52.851-1.156.995-1.825 1.187.762 2.493 1.354 3.884 1.741 1.132.316 2.347.085 3.283-.625.194-.147.371-.311.53-.489.159.178.336.342.53.489.936.71 2.151.941 3.283.625 1.406-.391 2.726-.992 3.923-1.767.14.678.474 1.325 1 1.851 1.437 1.437 3.771 1.437 5.208 0s1.437-3.771 0-5.208c-.531-.53-1.184-.865-1.869-1.004.76-1.183 1.353-2.484 1.747-3.867 0-.002.001-.004.002-.006.316-1.145.081-2.371-.638-3.316-.138-.181-.291-.348-.456-.499.165-.151.318-.318.456-.499.719-.945.954-2.171.638-3.315-.001-.003-.002-.005-.002-.007-.398-1.398-1-2.712-1.772-3.906.694-.136 1.357-.472 1.894-1.009 1.437-1.437 1.437-3.771 0-5.208s-3.771-1.437-5.208 0c-.536.536-.872 1.198-1.008 1.89-1.196-.773-2.512-1.372-3.915-1.761-1.132-.317-2.347-.086-3.283.624-.194.147-.371.311-.53.489-.159-.178-.336-.342-.53-.489-.936-.71-2.151-.941-3.283-.624-1.388.385-2.691.976-3.876 1.736-.139-.683-.473-1.335-1.003-1.865-1.437-1.437-3.771-1.437-5.208 0s-1.437 3.771 0 5.208c.527.527 1.175.861 1.855 1.001zm1.959 17.823c.029.054.064.107.104.157.53.66.488 1.629-.124 2.241-.657.656-1.723.656-2.38 0-.656-.657-.656-1.723 0-2.38.613-.612 1.583-.654 2.243-.122.05.04.102.075.157.104zm20.236 2.398c-.656-.657-.656-1.723 0-2.38.657-.656 1.723-.656 2.38 0 .656.657.656 1.723 0 2.38-.657.656-1.723.656-2.38 0zm-9.15-3.451c0-.778.501-1.467 1.239-1.709 2.734-.808 4.805-3.13 5.307-5.981.001-.003.001-.005.002-.008.031-.184.19-.319.377-.319.009 0 .018 0 .028-.001.63-.017 1.425-.017 2.208-.017.562 0 1.092.263 1.433.71.34.447.452 1.027.303 1.568-1.185 4.158-4.46 7.456-8.621 8.611-.001 0-.001 0-.002.001-.53.148-1.098.04-1.536-.292-.438-.333-.695-.85-.695-1.4 0-.037-.002-.073-.006-.11-.039-.354-.037-.712-.037-1.053zm-9.733-.299c-.042-.079-.095-.154-.161-.223-1.391-1.454-2.436-3.246-3.003-5.235-.149-.541-.037-1.121.303-1.568s.871-.71 1.433-.71c.783 0 1.578 0 2.208.017.01.001.019.001.028.001.187 0 .346.135.377.319.001.003.001.005.002.008.503 2.852 2.575 5.176 5.303 5.979.739.239 1.243.93 1.243 1.711 0 .341.002.699-.037 1.053-.004.037-.006.073-.006.11 0 .55-.257 1.067-.695 1.4-.438.332-1.007.44-1.536.292-.001-.001-.001-.001-.002-.001-1.992-.553-3.78-1.597-5.234-2.992-.068-.065-.143-.119-.223-.161zm14.73-8.735c-.211-.288-.358-.628-.42-.999-.371-2.102-1.894-3.82-3.907-4.41-.007-.002-.014-.004-.021-.007-.648-.206-1.211-.574-1.649-1.052-.438.478-1.001.846-1.649 1.052-.007.003-.014.005-.021.007-2.013.59-3.536 2.308-3.905 4.402-.063.374-.211.715-.422 1.005.211.289.358.628.42.999.371 2.102 1.894 3.82 3.907 4.41.007.002.014.004.021.007.648.206 1.211.575 1.649 1.053.438-.478 1-.847 1.649-1.053.007-.003.014-.005.021-.007 2.013-.59 3.536-2.308 3.905-4.402.063-.374.211-.715.422-1.005zm-4.997-9.036c0-.341-.002-.699.037-1.053.004-.037.006-.073.006-.11 0-.549.257-1.067.695-1.4.438-.332 1.006-.44 1.536-.291h.002c4.161 1.155 7.436 4.453 8.621 8.611.149.541.037 1.121-.303 1.568-.341.448-.871.71-1.433.71-.783 0-1.578 0-2.208-.017-.01 0-.019-.001-.028-.001-.187 0-.346-.135-.377-.319-.001-.002-.001-.005-.002-.008-.503-2.852-2.575-5.176-5.303-5.979-.739-.239-1.243-.93-1.243-1.711zm-2 0c0 .778-.501 1.467-1.239 1.709-2.734.808-4.805 3.13-5.307 5.981-.001.003-.001.006-.002.008-.031.184-.19.319-.377.319-.009 0-.018.001-.028.001-.63.017-1.425.017-2.208.017-.562 0-1.093-.262-1.433-.71-.34-.447-.452-1.027-.303-1.568 1.185-4.158 4.46-7.456 8.621-8.611h.002c.529-.149 1.098-.041 1.536.291.438.333.695.851.695 1.4 0 .037.002.073.006.11.039.354.037.712.037 1.053zm13.53-1.115c-.657.656-1.723.656-2.38 0-.656-.657-.656-1.723 0-2.38.657-.656 1.723-.656 2.38 0 .656.657.656 1.723 0 2.38zm-25.016 0c-.656-.657-.656-1.723 0-2.38.657-.656 1.723-.656 2.38 0 .656.657.656 1.723 0 2.38-.657.656-1.723.656-2.38 0z" fill="#493323"/></svg>