<svg clip-rule="evenodd" fill-rule="evenodd" stroke-linejoin="round" stroke-miterlimit="2" viewBox="0 0 32 32" xmlns="http://www.w3.org/2000/svg"><path d="m2 4c0-1.105.895-2 2-2h16c.53 0 1.039.211 1.414.586s.586.884.586 1.414v7c0 .53-.211 1.039-.586 1.414s-.884.586-1.414.586c-4.292 0-14.001 0-14.001 0l-4.002 3s.002-8.132.003-12z" fill="#54b435"/><path d="m29.997 18c0-1.105-.895-2-2-2-3.832 0-12.168 0-16 0-.531 0-1.039.211-1.414.586s-.586.884-.586 1.414v7c0 .53.211 1.039.586 1.414s.883.586 1.414.586h14.001l4.002 3s-.002-8.132-.003-12z" fill="#ffc93c"/><path d="m30.997 17.999c0-1.656-1.343-2.999-3-2.999-3.832 0-12.168 0-16 0-.796 0-1.559.316-2.122.879-.562.562-.878 1.325-.878 2.121v7c0 .796.316 1.559.878 2.121.563.563 1.326.879 2.122.879h13.667s3.736 2.8 3.736 2.8c.303.227.709.264 1.047.094.339-.169.553-.515.553-.894zm-2 .001.003 10s-2.403-1.8-2.403-1.8c-.173-.13-.383-.2-.599-.2 0 0-9.709 0-14.001 0-.265 0-.52-.105-.707-.293-.188-.187-.293-.442-.293-.707v-7c0-.265.105-.52.293-.707.187-.188.442-.293.707-.293h16c.552 0 1 .448 1 1zm-4 4h-6c-.552 0-1 .448-1 1s.448 1 1 1h6c.552 0 1-.448 1-1s-.448-1-1-1zm0-3h-10c-.552 0-1 .448-1 1s.448 1 1 1h10c.552 0 1-.448 1-1s-.448-1-1-1zm-23.997-15.001c-.001 3.869-.003 12.001-.003 12.001 0 .379.214.725.552.894.339.17.745.133 1.048-.094l3.735-2.8h13.668c.796 0 1.559-.316 2.121-.879.563-.562.879-1.325.879-2.121 0-1.986 0-5.014 0-7 0-.796-.316-1.559-.879-2.121-.562-.563-1.325-.879-2.121-.879-3.832 0-12.169 0-16 0-1.657 0-3 1.343-3 2.999zm2 .001c0-.552.447-1 1-1h16c.265 0 .52.105.707.293.188.187.293.442.293.707v7c0 .265-.105.52-.293.707-.187.188-.442.293-.707.293h-14.001c-.216 0-.427.07-.6.2l-2.402 1.8zm4 6h6c.552 0 1-.448 1-1s-.448-1-1-1h-6c-.552 0-1 .448-1 1s.448 1 1 1zm0-3h10c.552 0 1-.448 1-1s-.448-1-1-1h-10c-.552 0-1 .448-1 1s.448 1 1 1z" fill="#493323"/></svg>